# xmcd
#
# Track frame offsets:
#	150
#	16590
#	32240
#	53668
#	70454
#	98320
#	119806
#	131788
#	151612
#	173398
#	187259
#	202508
#	220861
#	236217
#	255027
#	272916
#	287258
#	302312
#	324821
#	340248
#
# Disc length: 4739 seconds
#
# Revision: 1
# Processed by: cddbd v1.5.2PL0 Copyright (c) Steve Scherf et al.
# Submitted via: audiograbber 1.83.01
#
DISCID=02128114
DTITLE=Various Artist - SWEET HOME ALABAMA VOL. 5 - DISC 1
DYEAR=2013
DGENRE=Country
TTITLE0=Skinny Molly - Devil In The Bottle
TTITLE1=Michael Scott - I Call It Livin'
TTITLE2=Mark Selby - Guitar In The Rain
TTITLE3=Debbie Nunn - Ain't Going Out Tonight
TTITLE4=Dean Collins - See You Tonight
TTITLE5=Devon Allman - Stop Draggin' My Heart Around
TTITLE6=Rick Monroe - One More
TTITLE7=Delta Moon - Blues In A Bottle
TTITLE8=Royal Southern Brotherhood - New Horizons
TTITLE9=Eric Heatherly - Another Day Rolled - Another Day Rocked
TTITLE10=Kevin Chase - Tattoo
TTITLE11=John Campbelljohn - Land Of The Livin'
TTITLE12=Soren Carter - Stay With Me
TTITLE13=Timo Gross - Small Town Blues
TTITLE14=Erja Lyytinen - Jealousy
TTITLE15=Cherish Alexander - Another Day
TTITLE16=Sammy Kershaw - Everybody Wants My Girl
TTITLE17=Mike Zito - Gone To Texas
TTITLE18=Gin Blossoms - Allison Road (Live)
TTITLE19=Bonnie Tyler - Flat On The Floor
EXTD=
EXTT0=
EXTT1=
EXTT2=
EXTT3=
EXTT4=
EXTT5=
EXTT6=
EXTT7=
EXTT8=
EXTT9=
EXTT10=
EXTT11=
EXTT12=
EXTT13=
EXTT14=
EXTT15=
EXTT16=
EXTT17=
EXTT18=
EXTT19=
PLAYORDER=
